<mxfile host="Electron" agent="Mozilla/5.0 (Macintosh; Intel Mac OS X 10_15_7) AppleWebKit/537.36 (KHTML, like Gecko) draw.io/26.0.16 Chrome/132.0.6834.196 Electron/34.2.0 Safari/537.36" version="26.0.16">
  <diagram name="Страница — 1" id="jlo8Q7k9wWEn1Y6Xuse-">
    <mxGraphModel dx="1463" dy="399" grid="1" gridSize="10" guides="1" tooltips="1" connect="1" arrows="1" fold="1" page="1" pageScale="1" pageWidth="827" pageHeight="1169" math="0" shadow="0">
      <root>
        <mxCell id="0" />
        <mxCell id="1" parent="0" />
        <mxCell id="HO23pxlDIeRQ0fcm9uqx-3" style="edgeStyle=orthogonalEdgeStyle;rounded=0;orthogonalLoop=1;jettySize=auto;html=1;entryX=0.5;entryY=0;entryDx=0;entryDy=0;" edge="1" parent="1" source="HO23pxlDIeRQ0fcm9uqx-1" target="HO23pxlDIeRQ0fcm9uqx-2">
          <mxGeometry relative="1" as="geometry" />
        </mxCell>
        <mxCell id="HO23pxlDIeRQ0fcm9uqx-1" value="Начало" style="ellipse;whiteSpace=wrap;html=1;aspect=fixed;" vertex="1" parent="1">
          <mxGeometry x="120" width="80" height="80" as="geometry" />
        </mxCell>
        <mxCell id="HO23pxlDIeRQ0fcm9uqx-6" style="edgeStyle=orthogonalEdgeStyle;rounded=0;orthogonalLoop=1;jettySize=auto;html=1;entryX=0.5;entryY=0;entryDx=0;entryDy=0;" edge="1" parent="1" source="HO23pxlDIeRQ0fcm9uqx-2" target="HO23pxlDIeRQ0fcm9uqx-5">
          <mxGeometry relative="1" as="geometry" />
        </mxCell>
        <mxCell id="HO23pxlDIeRQ0fcm9uqx-2" value="&lt;div&gt;int const size = 10;&lt;/div&gt;" style="rounded=0;whiteSpace=wrap;html=1;" vertex="1" parent="1">
          <mxGeometry x="105" y="170" width="110" height="30" as="geometry" />
        </mxCell>
        <mxCell id="HO23pxlDIeRQ0fcm9uqx-4" value="&lt;div&gt;#include &amp;lt;iostream&amp;gt;&lt;/div&gt;&lt;div&gt;&lt;div&gt;using namespace std;&lt;/div&gt;&lt;/div&gt;&lt;div&gt;&lt;div&gt;int main()&lt;/div&gt;&lt;/div&gt;" style="strokeWidth=2;html=1;shape=mxgraph.flowchart.annotation_2;align=left;labelPosition=right;pointerEvents=1;" vertex="1" parent="1">
          <mxGeometry x="160" y="100" width="20" height="50" as="geometry" />
        </mxCell>
        <mxCell id="HO23pxlDIeRQ0fcm9uqx-8" style="edgeStyle=orthogonalEdgeStyle;rounded=0;orthogonalLoop=1;jettySize=auto;html=1;entryX=0.5;entryY=0;entryDx=0;entryDy=0;" edge="1" parent="1" source="HO23pxlDIeRQ0fcm9uqx-5" target="HO23pxlDIeRQ0fcm9uqx-7">
          <mxGeometry relative="1" as="geometry" />
        </mxCell>
        <mxCell id="HO23pxlDIeRQ0fcm9uqx-5" value="&lt;div&gt;&amp;nbsp; &amp;nbsp; int array[size];&lt;/div&gt;" style="rounded=0;whiteSpace=wrap;html=1;" vertex="1" parent="1">
          <mxGeometry x="105" y="230" width="110" height="30" as="geometry" />
        </mxCell>
        <mxCell id="HO23pxlDIeRQ0fcm9uqx-10" style="edgeStyle=orthogonalEdgeStyle;rounded=0;orthogonalLoop=1;jettySize=auto;html=1;entryX=0.5;entryY=0;entryDx=0;entryDy=0;" edge="1" parent="1" source="HO23pxlDIeRQ0fcm9uqx-7" target="HO23pxlDIeRQ0fcm9uqx-9">
          <mxGeometry relative="1" as="geometry" />
        </mxCell>
        <mxCell id="HO23pxlDIeRQ0fcm9uqx-7" value="&lt;div&gt;int range_min, range_max, replace;&lt;/div&gt;" style="rounded=0;whiteSpace=wrap;html=1;" vertex="1" parent="1">
          <mxGeometry x="97.5" y="290" width="125" height="40" as="geometry" />
        </mxCell>
        <mxCell id="HO23pxlDIeRQ0fcm9uqx-16" style="edgeStyle=orthogonalEdgeStyle;rounded=0;orthogonalLoop=1;jettySize=auto;html=1;entryX=0.5;entryY=0;entryDx=0;entryDy=0;" edge="1" parent="1" source="HO23pxlDIeRQ0fcm9uqx-9" target="HO23pxlDIeRQ0fcm9uqx-15">
          <mxGeometry relative="1" as="geometry" />
        </mxCell>
        <mxCell id="HO23pxlDIeRQ0fcm9uqx-9" value="&lt;div&gt;range_min = 2;&lt;/div&gt;&lt;div&gt;&lt;span style=&quot;text-align: left;&quot;&gt;range_max =&amp;nbsp;&lt;/span&gt;&lt;span style=&quot;text-align: left;&quot; class=&quot;s1&quot;&gt;10000&lt;/span&gt;&lt;span style=&quot;text-align: left;&quot;&gt;;&lt;/span&gt;&lt;/div&gt;" style="rounded=0;whiteSpace=wrap;html=1;" vertex="1" parent="1">
          <mxGeometry x="97.5" y="360" width="125" height="40" as="geometry" />
        </mxCell>
        <mxCell id="HO23pxlDIeRQ0fcm9uqx-18" style="edgeStyle=orthogonalEdgeStyle;rounded=0;orthogonalLoop=1;jettySize=auto;html=1;entryX=0.5;entryY=0;entryDx=0;entryDy=0;" edge="1" parent="1" source="HO23pxlDIeRQ0fcm9uqx-15" target="HO23pxlDIeRQ0fcm9uqx-17">
          <mxGeometry relative="1" as="geometry" />
        </mxCell>
        <mxCell id="HO23pxlDIeRQ0fcm9uqx-26" style="edgeStyle=orthogonalEdgeStyle;rounded=0;orthogonalLoop=1;jettySize=auto;html=1;entryX=0.5;entryY=0;entryDx=0;entryDy=0;" edge="1" parent="1" source="HO23pxlDIeRQ0fcm9uqx-15" target="HO23pxlDIeRQ0fcm9uqx-22">
          <mxGeometry relative="1" as="geometry">
            <Array as="points">
              <mxPoint x="270" y="460" />
              <mxPoint x="270" y="710" />
              <mxPoint x="160" y="710" />
            </Array>
          </mxGeometry>
        </mxCell>
        <mxCell id="HO23pxlDIeRQ0fcm9uqx-15" value="for (int i = 0; i &amp;lt; size; i++)" style="verticalLabelPosition=middle;verticalAlign=middle;html=1;shape=hexagon;perimeter=hexagonPerimeter2;arcSize=6;size=0.16666666666666666;labelPosition=center;align=center;" vertex="1" parent="1">
          <mxGeometry x="70" y="430" width="180" height="60" as="geometry" />
        </mxCell>
        <mxCell id="HO23pxlDIeRQ0fcm9uqx-20" style="edgeStyle=orthogonalEdgeStyle;rounded=0;orthogonalLoop=1;jettySize=auto;html=1;entryX=0.5;entryY=0;entryDx=0;entryDy=0;" edge="1" parent="1" source="HO23pxlDIeRQ0fcm9uqx-17">
          <mxGeometry relative="1" as="geometry">
            <mxPoint x="160" y="610" as="targetPoint" />
          </mxGeometry>
        </mxCell>
        <mxCell id="HO23pxlDIeRQ0fcm9uqx-17" value="array[i] = ((double)rand() / RAND_MAX) * (range_max - range_min) + range_min;" style="rounded=0;whiteSpace=wrap;html=1;" vertex="1" parent="1">
          <mxGeometry x="75" y="520" width="170" height="60" as="geometry" />
        </mxCell>
        <mxCell id="HO23pxlDIeRQ0fcm9uqx-21" style="edgeStyle=orthogonalEdgeStyle;rounded=0;orthogonalLoop=1;jettySize=auto;html=1;entryX=0;entryY=0.5;entryDx=0;entryDy=0;" edge="1" parent="1" target="HO23pxlDIeRQ0fcm9uqx-15">
          <mxGeometry relative="1" as="geometry">
            <mxPoint x="160" y="640" as="sourcePoint" />
            <Array as="points">
              <mxPoint x="160" y="670" />
              <mxPoint x="50" y="670" />
              <mxPoint x="50" y="460" />
            </Array>
          </mxGeometry>
        </mxCell>
        <mxCell id="HO23pxlDIeRQ0fcm9uqx-28" style="edgeStyle=orthogonalEdgeStyle;rounded=0;orthogonalLoop=1;jettySize=auto;html=1;entryX=0.5;entryY=0;entryDx=0;entryDy=0;" edge="1" parent="1" source="HO23pxlDIeRQ0fcm9uqx-22" target="HO23pxlDIeRQ0fcm9uqx-27">
          <mxGeometry relative="1" as="geometry" />
        </mxCell>
        <mxCell id="HO23pxlDIeRQ0fcm9uqx-22" value="for (int i = 0; i &amp;lt; size; i++)" style="verticalLabelPosition=middle;verticalAlign=middle;html=1;shape=hexagon;perimeter=hexagonPerimeter2;arcSize=6;size=0.21428571428571427;labelPosition=center;align=center;" vertex="1" parent="1">
          <mxGeometry x="80" y="740" width="160" height="60" as="geometry" />
        </mxCell>
        <mxCell id="HO23pxlDIeRQ0fcm9uqx-31" style="edgeStyle=orthogonalEdgeStyle;rounded=0;orthogonalLoop=1;jettySize=auto;html=1;entryX=0.5;entryY=0;entryDx=0;entryDy=0;" edge="1" parent="1" source="HO23pxlDIeRQ0fcm9uqx-27" target="HO23pxlDIeRQ0fcm9uqx-29">
          <mxGeometry relative="1" as="geometry" />
        </mxCell>
        <mxCell id="HO23pxlDIeRQ0fcm9uqx-48" style="edgeStyle=orthogonalEdgeStyle;rounded=0;orthogonalLoop=1;jettySize=auto;html=1;entryX=0;entryY=0.5;entryDx=0;entryDy=0;" edge="1" parent="1" source="HO23pxlDIeRQ0fcm9uqx-27" target="HO23pxlDIeRQ0fcm9uqx-22">
          <mxGeometry relative="1" as="geometry">
            <mxPoint x="-30" y="770" as="targetPoint" />
            <Array as="points">
              <mxPoint x="290" y="860" />
              <mxPoint x="290" y="1280" />
              <mxPoint x="-50" y="1280" />
              <mxPoint x="-50" y="770" />
            </Array>
          </mxGeometry>
        </mxCell>
        <mxCell id="HO23pxlDIeRQ0fcm9uqx-27" value="for (int j = i + 1; j &amp;gt; 1; j--)" style="verticalLabelPosition=middle;verticalAlign=middle;html=1;shape=hexagon;perimeter=hexagonPerimeter2;arcSize=6;size=0.23333333333333334;labelPosition=center;align=center;" vertex="1" parent="1">
          <mxGeometry x="85" y="830" width="150" height="60" as="geometry" />
        </mxCell>
        <mxCell id="HO23pxlDIeRQ0fcm9uqx-34" style="edgeStyle=orthogonalEdgeStyle;rounded=0;orthogonalLoop=1;jettySize=auto;html=1;entryX=0.5;entryY=0;entryDx=0;entryDy=0;" edge="1" parent="1" source="HO23pxlDIeRQ0fcm9uqx-29" target="HO23pxlDIeRQ0fcm9uqx-32">
          <mxGeometry relative="1" as="geometry">
            <Array as="points">
              <mxPoint x="75" y="975" />
            </Array>
          </mxGeometry>
        </mxCell>
        <mxCell id="HO23pxlDIeRQ0fcm9uqx-52" value="1" style="edgeLabel;html=1;align=center;verticalAlign=bottom;resizable=0;points=[];labelPosition=center;verticalLabelPosition=top;" vertex="1" connectable="0" parent="HO23pxlDIeRQ0fcm9uqx-34">
          <mxGeometry x="-0.7761" relative="1" as="geometry">
            <mxPoint as="offset" />
          </mxGeometry>
        </mxCell>
        <mxCell id="HO23pxlDIeRQ0fcm9uqx-45" style="edgeStyle=orthogonalEdgeStyle;rounded=0;orthogonalLoop=1;jettySize=auto;html=1;endArrow=none;startFill=0;" edge="1" parent="1">
          <mxGeometry relative="1" as="geometry">
            <mxPoint x="70" y="1240" as="targetPoint" />
            <mxPoint x="218.23" y="975" as="sourcePoint" />
            <Array as="points">
              <mxPoint x="250" y="975" />
              <mxPoint x="250" y="1240" />
            </Array>
          </mxGeometry>
        </mxCell>
        <mxCell id="HO23pxlDIeRQ0fcm9uqx-53" value="0" style="edgeLabel;html=1;align=center;verticalAlign=bottom;resizable=0;points=[];labelPosition=center;verticalLabelPosition=top;" vertex="1" connectable="0" parent="HO23pxlDIeRQ0fcm9uqx-45">
          <mxGeometry x="-0.9389" relative="1" as="geometry">
            <mxPoint as="offset" />
          </mxGeometry>
        </mxCell>
        <mxCell id="HO23pxlDIeRQ0fcm9uqx-29" value="if (array[j] &amp;lt;&amp;nbsp;&lt;div&gt;array[j - 1])&lt;/div&gt;" style="rhombus;whiteSpace=wrap;html=1;" vertex="1" parent="1">
          <mxGeometry x="101.25" y="920" width="117.5" height="110" as="geometry" />
        </mxCell>
        <mxCell id="HO23pxlDIeRQ0fcm9uqx-36" style="edgeStyle=orthogonalEdgeStyle;rounded=0;orthogonalLoop=1;jettySize=auto;html=1;entryX=0.5;entryY=0;entryDx=0;entryDy=0;" edge="1" parent="1" source="HO23pxlDIeRQ0fcm9uqx-32" target="HO23pxlDIeRQ0fcm9uqx-35">
          <mxGeometry relative="1" as="geometry" />
        </mxCell>
        <mxCell id="HO23pxlDIeRQ0fcm9uqx-32" value="replace = array[j - 1];" style="rounded=0;whiteSpace=wrap;html=1;" vertex="1" parent="1">
          <mxGeometry x="10" y="1060" width="130" height="30" as="geometry" />
        </mxCell>
        <mxCell id="HO23pxlDIeRQ0fcm9uqx-38" style="edgeStyle=orthogonalEdgeStyle;rounded=0;orthogonalLoop=1;jettySize=auto;html=1;entryX=0.5;entryY=0;entryDx=0;entryDy=0;" edge="1" parent="1" source="HO23pxlDIeRQ0fcm9uqx-35" target="HO23pxlDIeRQ0fcm9uqx-37">
          <mxGeometry relative="1" as="geometry" />
        </mxCell>
        <mxCell id="HO23pxlDIeRQ0fcm9uqx-35" value="array[j - 1] = array[j];" style="rounded=0;whiteSpace=wrap;html=1;" vertex="1" parent="1">
          <mxGeometry x="10" y="1120" width="130" height="30" as="geometry" />
        </mxCell>
        <mxCell id="HO23pxlDIeRQ0fcm9uqx-39" style="edgeStyle=orthogonalEdgeStyle;rounded=0;orthogonalLoop=1;jettySize=auto;html=1;entryX=0;entryY=0.5;entryDx=0;entryDy=0;" edge="1" parent="1" source="HO23pxlDIeRQ0fcm9uqx-37" target="HO23pxlDIeRQ0fcm9uqx-27">
          <mxGeometry relative="1" as="geometry">
            <mxPoint x="20" y="860" as="targetPoint" />
            <Array as="points">
              <mxPoint x="75" y="1240" />
              <mxPoint x="-10" y="1240" />
              <mxPoint x="-10" y="860" />
            </Array>
          </mxGeometry>
        </mxCell>
        <mxCell id="HO23pxlDIeRQ0fcm9uqx-37" value="array[j] = replace;" style="rounded=0;whiteSpace=wrap;html=1;" vertex="1" parent="1">
          <mxGeometry x="20" y="1180" width="110" height="30" as="geometry" />
        </mxCell>
        <mxCell id="HO23pxlDIeRQ0fcm9uqx-56" style="edgeStyle=orthogonalEdgeStyle;rounded=0;orthogonalLoop=1;jettySize=auto;html=1;" edge="1" parent="1" source="HO23pxlDIeRQ0fcm9uqx-22">
          <mxGeometry relative="1" as="geometry">
            <mxPoint x="160" y="1350" as="targetPoint" />
            <mxPoint x="240" y="770" as="sourcePoint" />
            <Array as="points">
              <mxPoint x="330" y="770" />
              <mxPoint x="330" y="1320" />
              <mxPoint x="160" y="1320" />
            </Array>
          </mxGeometry>
        </mxCell>
        <mxCell id="HO23pxlDIeRQ0fcm9uqx-58" value="cout &amp;lt;&amp;lt; array[i] &amp;lt;&amp;lt; &quot; &quot;;" style="shape=parallelogram;perimeter=parallelogramPerimeter;whiteSpace=wrap;html=1;fixedSize=1;" vertex="1" parent="1">
          <mxGeometry x="77.5" y="610" width="165" height="30" as="geometry" />
        </mxCell>
        <mxCell id="HO23pxlDIeRQ0fcm9uqx-61" style="edgeStyle=orthogonalEdgeStyle;rounded=0;orthogonalLoop=1;jettySize=auto;html=1;entryX=0.5;entryY=0;entryDx=0;entryDy=0;" edge="1" parent="1" source="HO23pxlDIeRQ0fcm9uqx-59" target="HO23pxlDIeRQ0fcm9uqx-60">
          <mxGeometry relative="1" as="geometry" />
        </mxCell>
        <mxCell id="HO23pxlDIeRQ0fcm9uqx-59" value="cout &amp;lt;&amp;lt; endl;" style="shape=parallelogram;perimeter=parallelogramPerimeter;whiteSpace=wrap;html=1;fixedSize=1;" vertex="1" parent="1">
          <mxGeometry x="105" y="1350" width="110" height="30" as="geometry" />
        </mxCell>
        <mxCell id="HO23pxlDIeRQ0fcm9uqx-63" style="edgeStyle=orthogonalEdgeStyle;rounded=0;orthogonalLoop=1;jettySize=auto;html=1;entryX=0.5;entryY=0;entryDx=0;entryDy=0;" edge="1" parent="1" source="HO23pxlDIeRQ0fcm9uqx-60" target="HO23pxlDIeRQ0fcm9uqx-62">
          <mxGeometry relative="1" as="geometry" />
        </mxCell>
        <mxCell id="HO23pxlDIeRQ0fcm9uqx-66" style="edgeStyle=orthogonalEdgeStyle;rounded=0;orthogonalLoop=1;jettySize=auto;html=1;entryX=0.5;entryY=0;entryDx=0;entryDy=0;" edge="1" parent="1" source="HO23pxlDIeRQ0fcm9uqx-60" target="HO23pxlDIeRQ0fcm9uqx-65">
          <mxGeometry relative="1" as="geometry">
            <mxPoint x="260" y="1620" as="targetPoint" />
            <Array as="points">
              <mxPoint x="261" y="1440" />
              <mxPoint x="261" y="1600" />
              <mxPoint x="160" y="1600" />
            </Array>
          </mxGeometry>
        </mxCell>
        <mxCell id="HO23pxlDIeRQ0fcm9uqx-60" value="for (int i = 0; i &amp;lt; size; i++)" style="verticalLabelPosition=middle;verticalAlign=middle;html=1;shape=hexagon;perimeter=hexagonPerimeter2;arcSize=6;size=0.23333333333333334;labelPosition=center;align=center;" vertex="1" parent="1">
          <mxGeometry x="85" y="1410" width="150" height="60" as="geometry" />
        </mxCell>
        <mxCell id="HO23pxlDIeRQ0fcm9uqx-64" style="edgeStyle=orthogonalEdgeStyle;rounded=0;orthogonalLoop=1;jettySize=auto;html=1;entryX=0;entryY=0.5;entryDx=0;entryDy=0;" edge="1" parent="1" source="HO23pxlDIeRQ0fcm9uqx-62" target="HO23pxlDIeRQ0fcm9uqx-60">
          <mxGeometry relative="1" as="geometry">
            <mxPoint x="40" y="1440" as="targetPoint" />
            <Array as="points">
              <mxPoint x="160" y="1560" />
              <mxPoint x="50" y="1560" />
              <mxPoint x="50" y="1440" />
            </Array>
          </mxGeometry>
        </mxCell>
        <mxCell id="HO23pxlDIeRQ0fcm9uqx-62" value="cout &amp;lt;&amp;lt; array[i] &amp;lt;&amp;lt; &quot; &quot;;" style="shape=parallelogram;perimeter=parallelogramPerimeter;whiteSpace=wrap;html=1;fixedSize=1;" vertex="1" parent="1">
          <mxGeometry x="85" y="1500" width="150" height="30" as="geometry" />
        </mxCell>
        <mxCell id="HO23pxlDIeRQ0fcm9uqx-65" value="Конец" style="ellipse;whiteSpace=wrap;html=1;aspect=fixed;" vertex="1" parent="1">
          <mxGeometry x="120" y="1680" width="80" height="80" as="geometry" />
        </mxCell>
        <mxCell id="HO23pxlDIeRQ0fcm9uqx-67" value="return 0;&lt;div&gt;}&lt;/div&gt;" style="strokeWidth=2;html=1;shape=mxgraph.flowchart.annotation_2;align=left;labelPosition=right;pointerEvents=1;" vertex="1" parent="1">
          <mxGeometry x="160" y="1620" width="20" height="40" as="geometry" />
        </mxCell>
      </root>
    </mxGraphModel>
  </diagram>
</mxfile>
